# xmcd
#
# Track frame offsets:
#	150
#	17779
#	36328
#	56854
#	76641
#	91596
#	111642
#	132528
#	154634
#	177067
#	194551
#	213299
#	236838
#
# Disc length: 3204 seconds
#
# Revision: 0
# Processed by: cddbd v1.5.2PL0 Copyright (c) Steve Scherf et al.
# Submitted via: audiograbber 1.80.04
#
DISCID=af0c820d
DTITLE=Аллегрова Ирина and Шуфутинский Михаил - "Пополам"
DYEAR=2004
DGENRE=Chanson
TTITLE0=Колея
TTITLE1=Заново
TTITLE2=Посылочка
TTITLE3=Мышонок
TTITLE4=Не верь, не бойся...
TTITLE5=Патрон
TTITLE6=Одинокая
TTITLE7=Ты прости меня
TTITLE8=Новогодние сны
TTITLE9=Бубны, черви
TTITLE10=Какие наши годы
TTITLE11=Пополам
TTITLE12=bonus
EXTD=JRC - Licenzed 29.03.2004
EXTT0=
EXTT1=
EXTT2=
EXTT3=
EXTT4=
EXTT5=
EXTT6=
EXTT7=
EXTT8=
EXTT9=
EXTT10=
EXTT11=
EXTT12=
PLAYORDER=
